<?xml version="1.0" encoding="UTF-8" standalone="no"?>
<svg width="192" height="192" viewBox="0 0 192 192" xmlns="http://www.w3.org/2000/svg">
  <rect width="192" height="192" rx="32" fill="#4CAF50"/>
  <path d="M96 36C62.864 36 36 62.864 36 96C36 129.136 62.864 156 96 156C129.136 156 156 129.136 156 96C156 62.864 129.136 36 96 36ZM96 46C123.596 46 146 68.404 146 96C146 123.596 123.596 146 96 146C68.404 146 46 123.596 46 96C46 68.404 68.404 46 96 46Z" fill="white"/>
  <path d="M96 56C73.909 56 56 73.909 56 96C56 118.091 73.909 136 96 136C118.091 136 136 118.091 136 96C136 73.909 118.091 56 96 56ZM96 66C112.569 66 126 79.431 126 96C126 112.569 112.569 126 96 126C79.431 126 66 112.569 66 96C66 79.431 79.431 66 96 66Z" fill="white"/>
  <path d="M96 76C84.954 76 76 84.954 76 96C76 107.046 84.954 116 96 116C107.046 116 116 107.046 116 96C116 84.954 107.046 76 96 76ZM96 86C101.523 86 106 90.477 106 96C106 101.523 101.523 106 96 106C90.477 106 86 101.523 86 96C86 90.477 90.477 86 96 86Z" fill="white"/>
  <path d="M96 96m-5 0a5 5 0 1 0 10 0a5 5 0 1 0 -10 0" fill="white"/>
  <path d="M50 50L70 70M122 70L142 50M50 142L70 122M122 122L142 142" stroke="white" stroke-width="6" stroke-linecap="round"/>
  <path d="M96 18V36M96 156V174M18 96H36M156 96H174" stroke="white" stroke-width="6" stroke-linecap="round"/>
</svg>