<?xml version="1.0" encoding="UTF-8" standalone="no"?>
<svg width="512" height="512" viewBox="0 0 512 512" xmlns="http://www.w3.org/2000/svg">
  <rect width="512" height="512" rx="64" fill="#4CAF50"/>
  <path d="M256 96C167.634 96 96 167.634 96 256C96 344.366 167.634 416 256 416C344.366 416 416 344.366 416 256C416 167.634 344.366 96 256 96ZM256 128C326.928 128 384 185.072 384 256C384 326.928 326.928 384 256 384C185.072 384 128 326.928 128 256C128 185.072 185.072 128 256 128Z" fill="white"/>
  <path d="M256 160C202.976 160 160 202.976 160 256C160 309.024 202.976 352 256 352C309.024 352 352 309.024 352 256C352 202.976 309.024 160 256 160ZM256 192C291.346 192 320 220.654 320 256C320 291.346 291.346 320 256 320C220.654 320 192 291.346 192 256C192 220.654 220.654 192 256 192Z" fill="white"/>
  <path d="M256 224C238.327 224 224 238.327 224 256C224 273.673 238.327 288 256 288C273.673 288 288 273.673 288 256C288 238.327 273.673 224 256 224ZM256 240C264.837 240 272 247.163 272 256C272 264.837 264.837 272 256 272C247.163 272 240 264.837 240 256C240 247.163 247.163 240 256 240Z" fill="white"/>
  <path d="M256 256m-10 0a10 10 0 1 0 20 0a10 10 0 1 0 -20 0" fill="white"/>
  <path d="M136 136L176 176M336 176L376 136M136 376L176 336M336 336L376 376" stroke="white" stroke-width="12" stroke-linecap="round"/>
  <path d="M256 48V96M256 416V464M48 256H96M416 256H464" stroke="white" stroke-width="12" stroke-linecap="round"/>
  <path d="M72 160L116 204M396 204L440 160M72 352L116 308M396 308L440 352" stroke="white" stroke-width="8" stroke-linecap="round"/>
  <path d="M160 72L204 116M308 116L352 72M160 440L204 396M308 396L352 440" stroke="white" stroke-width="8" stroke-linecap="round"/>
</svg>