<?xml version="1.0" encoding="UTF-8" standalone="no"?>
<svg xmlns="http://www.w3.org/2000/svg" width="800" height="500" viewBox="0 0 800 500">
  <!-- Background with subtle gradient -->
  <rect width="800" height="500" fill="#f8f9fa" rx="20" ry="20" />
  
  <!-- Agricultural pattern background -->
  <pattern id="leafPattern" patternUnits="userSpaceOnUse" width="100" height="100" patternTransform="rotate(10)">
    <path d="M50,50 C20,50 20,20 50,20 C50,50 80,50 50,80 C50,50" fill="#4CAF50" opacity="0.05" />
  </pattern>
  <rect width="800" height="500" fill="url(#leafPattern)" rx="20" ry="20" />
  
  <!-- QR Code -->
  <g transform="translate(150, 100) scale(1.2)">
    <!-- QR Frame -->
    <rect x="0" y="0" width="250" height="250" rx="10" fill="white" stroke="#333" stroke-width="3"/>
    
    <!-- QR Code Elements -->
    <!-- Position markers -->
    <g>
      <!-- Top-left position marker -->
      <rect x="20" y="20" width="50" height="50" fill="#333"/>
      <rect x="30" y="30" width="30" height="30" fill="white"/>
      <rect x="40" y="40" width="10" height="10" fill="#333"/>
      
      <!-- Top-right position marker -->
      <rect x="180" y="20" width="50" height="50" fill="#333"/>
      <rect x="190" y="30" width="30" height="30" fill="white"/>
      <rect x="200" y="40" width="10" height="10" fill="#333"/>
      
      <!-- Bottom-left position marker -->
      <rect x="20" y="180" width="50" height="50" fill="#333"/>
      <rect x="30" y="190" width="30" height="30" fill="white"/>
      <rect x="40" y="200" width="10" height="10" fill="#333"/>
    </g>
    
    <!-- QR Code data pattern (simplified) -->
    <g fill="#333">
      <!-- Row 1 data -->
      <rect x="80" y="20" width="10" height="10"/>
      <rect x="100" y="20" width="10" height="10"/>
      <rect x="130" y="20" width="10" height="10"/>
      <rect x="150" y="20" width="10" height="10"/>
      
      <!-- Row 2 data -->
      <rect x="90" y="30" width="10" height="10"/>
      <rect x="110" y="30" width="10" height="10"/>
      <rect x="120" y="30" width="10" height="10"/>
      <rect x="160" y="30" width="10" height="10"/>
      
      <!-- More data patterns -->
      <rect x="100" y="50" width="10" height="10"/>
      <rect x="120" y="50" width="10" height="10"/>
      <rect x="150" y="50" width="10" height="10"/>
      <rect x="170" y="50" width="10" height="10"/>
      
      <rect x="80" y="70" width="10" height="10"/>
      <rect x="110" y="70" width="10" height="10"/>
      <rect x="140" y="70" width="10" height="10"/>
      <rect x="160" y="70" width="10" height="10"/>
      
      <rect x="90" y="90" width="10" height="10"/>
      <rect x="120" y="90" width="10" height="10"/>
      <rect x="170" y="90" width="10" height="10"/>
      
      <rect x="50" y="100" width="10" height="10"/>
      <rect x="80" y="100" width="10" height="10"/>
      <rect x="100" y="100" width="10" height="10"/>
      <rect x="130" y="100" width="10" height="10"/>
      <rect x="160" y="100" width="10" height="10"/>
      
      <rect x="70" y="120" width="10" height="10"/>
      <rect x="100" y="120" width="10" height="10"/>
      <rect x="120" y="120" width="10" height="10"/>
      <rect x="150" y="120" width="10" height="10"/>
      
      <rect x="60" y="140" width="10" height="10"/>
      <rect x="90" y="140" width="10" height="10"/>
      <rect x="110" y="140" width="10" height="10"/>
      <rect x="130" y="140" width="10" height="10"/>
      <rect x="170" y="140" width="10" height="10"/>
      
      <rect x="80" y="160" width="10" height="10"/>
      <rect x="100" y="160" width="10" height="10"/>
      <rect x="140" y="160" width="10" height="10"/>
      <rect x="160" y="160" width="10" height="10"/>
      
      <rect x="90" y="180" width="10" height="10"/>
      <rect x="110" y="180" width="10" height="10"/>
      <rect x="120" y="180" width="10" height="10"/>
      <rect x="150" y="180" width="10" height="10"/>
      <rect x="170" y="180" width="10" height="10"/>
      
      <rect x="100" y="200" width="10" height="10"/>
      <rect x="130" y="200" width="10" height="10"/>
      <rect x="160" y="200" width="10" height="10"/>
      <rect x="180" y="200" width="10" height="10"/>
      
      <rect x="80" y="220" width="10" height="10"/>
      <rect x="110" y="220" width="10" height="10"/>
      <rect x="140" y="220" width="10" height="10"/>
      <rect x="160" y="220" width="10" height="10"/>
      <rect x="190" y="220" width="10" height="10"/>
    </g>
  </g>
  
  <!-- Agriculture graphic elements -->
  <g transform="translate(450, 120) scale(0.7)">
    <!-- Stylized plant/tree -->
    <path d="M100,300 L100,200 C100,200 70,150 100,100 C130,150 100,200 100,200 L100,300 Z" fill="#4CAF50" />
    <path d="M100,200 C100,200 150,170 200,200 C150,230 100,200 100,200 Z" fill="#4CAF50" />
    <path d="M100,150 C100,150 50,120 0,150 C50,180 100,150 100,150 Z" fill="#4CAF50" />
    <path d="M100,250 C100,250 150,220 200,250 C150,280 100,250 100,250 Z" fill="#4CAF50" />
    <path d="M100,100 C100,100 50,70 0,100 C50,130 100,100 100,100 Z" fill="#4CAF50" />
    
    <!-- Ground/soil element -->
    <path d="M0,300 C50,280 150,280 200,300 L200,350 L0,350 Z" fill="#8D6E63" opacity="0.7" />
  </g>
  
  <!-- Scanline effect -->
  <rect x="150" y="200" width="300" height="4" fill="#ff3e00" opacity="0.7">
    <animate attributeName="y" from="100" to="300" dur="2s" repeatCount="indefinite" />
  </rect>
  
  <!-- Text labels -->
  <text x="500" y="180" font-family="Arial, sans-serif" font-size="32" font-weight="bold" fill="#333">TraceTrack</text>
  <text x="500" y="220" font-family="Arial, sans-serif" font-size="18" fill="#555">Agricultural Traceability System</text>
  
  <!-- Product Journey Line -->
  <path d="M500,250 L700,250" stroke="#4CAF50" stroke-width="2" stroke-dasharray="5,5" />
  
  <!-- Journey Points -->
  <circle cx="500" cy="250" r="8" fill="#4CAF50" />
  <text x="490" y="280" font-family="Arial, sans-serif" font-size="14" fill="#555">Farm</text>
  
  <circle cx="600" cy="250" r="8" fill="#4CAF50" />
  <text x="575" y="280" font-family="Arial, sans-serif" font-size="14" fill="#555">Processing</text>
  
  <circle cx="700" cy="250" r="8" fill="#4CAF50" />
  <text x="680" y="280" font-family="Arial, sans-serif" font-size="14" fill="#555">Retail</text>
  
  <!-- Summary Points -->
  <g transform="translate(500, 320)">
    <circle cx="0" cy="0" r="5" fill="#4CAF50" />
    <text x="15" y="5" font-family="Arial, sans-serif" font-size="14" fill="#555">Real-time tracking</text>
    
    <circle cx="0" cy="30" r="5" fill="#4CAF50" />
    <text x="15" y="35" font-family="Arial, sans-serif" font-size="14" fill="#555">Parent-child relationships</text>
    
    <circle cx="0" cy="60" r="5" fill="#4CAF50" />
    <text x="15" y="65" font-family="Arial, sans-serif" font-size="14" fill="#555">Location awareness</text>
  </g>
</svg>