<?xml version="1.0" encoding="UTF-8" standalone="no"?>
<svg xmlns="http://www.w3.org/2000/svg" width="512" height="512" viewBox="0 0 512 512">
  <rect width="512" height="512" rx="50" fill="#4CAF50"/>
  <g transform="translate(106, 106) scale(0.6)">
    <!-- QR Code Scanline -->
    <rect x="50" y="150" width="300" height="20" rx="10" fill="#ffffff" opacity="0.9"/>
    
    <!-- QR Code Frame -->
    <rect x="50" y="50" width="300" height="300" rx="20" fill="none" stroke="#ffffff" stroke-width="20"/>
    
    <!-- QR Code Corner Top Left -->
    <rect x="80" y="80" width="80" height="80" rx="10" fill="#ffffff"/>
    
    <!-- QR Code Corner Top Right -->
    <rect x="240" y="80" width="80" height="80" rx="10" fill="#ffffff"/>
    
    <!-- QR Code Corner Bottom Left -->
    <rect x="80" y="240" width="80" height="80" rx="10" fill="#ffffff"/>
    
    <!-- Leaf Emblem in Bottom Right -->
    <path d="M320,320 C260,320 240,280 240,240 C240,180 280,180 320,180 C320,240 280,280 320,320 Z" fill="#ffffff"/>
    <path d="M285,285 C285,265 295,255 305,255 C305,275 295,285 285,285 Z" fill="#4CAF50"/>
  </g>
</svg>