<?xml version="1.0" encoding="UTF-8" standalone="no"?>
<svg xmlns="http://www.w3.org/2000/svg" width="1024" height="1024" viewBox="0 0 1024 1024">
  <rect width="1024" height="1024" fill="#4CAF50"/>
  <g transform="translate(212, 212) scale(0.6)">
    <!-- QR Code Scanline -->
    <rect x="50" y="350" width="800" height="40" rx="20" fill="#ffffff" opacity="0.9"/>
    
    <!-- QR Code Frame -->
    <rect x="150" y="150" width="700" height="700" rx="40" fill="none" stroke="#ffffff" stroke-width="40"/>
    
    <!-- QR Code Corner Top Left -->
    <rect x="200" y="200" width="140" height="140" rx="20" fill="#ffffff"/>
    
    <!-- QR Code Corner Top Right -->
    <rect x="660" y="200" width="140" height="140" rx="20" fill="#ffffff"/>
    
    <!-- QR Code Corner Bottom Left -->
    <rect x="200" y="660" width="140" height="140" rx="20" fill="#ffffff"/>
    
    <!-- Leaf Emblem in Bottom Right -->
    <path d="M800,800 C680,800 640,720 640,640 C640,520 720,520 800,520 C800,640 720,720 800,800 Z" fill="#ffffff"/>
    <path d="M730,730 C730,690 750,670 770,670 C770,710 750,730 730,730 Z" fill="#4CAF50"/>
  </g>
  <text x="512" y="150" font-family="Arial, sans-serif" font-size="70" font-weight="bold" text-anchor="middle" fill="#ffffff">TraceTrack</text>
  <text x="512" y="950" font-family="Arial, sans-serif" font-size="40" text-anchor="middle" fill="#ffffff">Agricultural Product Tracking</text>
</svg>